<svg width="23" height="22" viewBox="0 0 23 22" fill="none" xmlns="http://www.w3.org/2000/svg">
  <path d="M17.5 9L14.0657 12.4343C13.8677 12.6323 13.7687 12.7313 13.6545 12.7684C13.5541 12.8011 13.4459 12.8011 13.3455 12.7684C13.2313 12.7313 13.1323 12.6323 12.9343 12.4343L10.0657 9.56569C9.86768 9.36768 9.76867 9.26867 9.65451 9.23158C9.55409 9.19895 9.44591 9.19895 9.34549 9.23158C9.23133 9.26867 9.13232 9.36768 8.93431 9.56569L5.5 13M21.5 11C21.5 16.5228 17.0228 21 11.5 21C5.97715 21 1.5 16.5228 1.5 11C1.5 5.47715 5.97715 1 11.5 1C17.0228 1 21.5 5.47715 21.5 11Z" stroke-width="2" stroke-linecap="round" stroke-linejoin="round" />
</svg>
  