<svg width="163" height="98" viewBox="0 0 163 98" fill="none" xmlns="http://www.w3.org/2000/svg">
<g clip-path="url(#clip0_200_1739)">
<path opacity="0.42" d="M44.8979 82.1775C43.0759 82.1775 41.3285 81.4645 40.0401 80.1953C38.7518 78.9261 38.028 77.2047 38.028 75.4098C38.028 73.6148 38.7518 71.8934 40.0401 70.6242C41.3285 69.355 43.0759 68.642 44.8979 68.642H6.83284C5.01095 68.642 3.26367 67.929 1.9754 66.6599C0.687124 65.3907 -0.0366211 63.6694 -0.0366211 61.8746C-0.0366211 60.0798 0.687124 58.3585 1.9754 57.0894C3.26367 55.8202 5.01095 55.1073 6.83284 55.1073H45.8742C47.6962 55.1073 49.4436 54.3942 50.732 53.125C52.0203 51.8558 52.7441 50.1344 52.7441 48.3395C52.7441 46.5446 52.0203 44.8232 50.732 43.554C49.4436 42.2848 47.6962 41.5717 45.8742 41.5717H21.4728C19.6509 41.5717 17.9036 40.8587 16.6154 39.5896C15.3271 38.3205 14.6033 36.5992 14.6033 34.8044C14.6033 33.0095 15.3271 31.2882 16.6154 30.0191C17.9036 28.75 19.6509 28.037 21.4728 28.037H60.515C58.693 28.037 56.9456 27.324 55.6573 26.0548C54.3689 24.7856 53.6451 23.0642 53.6451 21.2692C53.6451 19.4743 54.3689 17.7529 55.6573 16.4837C56.9456 15.2145 58.693 14.5015 60.515 14.5015H156.167C157.989 14.5015 159.737 15.2145 161.025 16.4837C162.313 17.7529 163.037 19.4743 163.037 21.2692C163.037 23.0642 162.313 24.7856 161.025 26.0548C159.737 27.324 157.989 28.037 156.167 28.037H117.125C118.947 28.037 120.694 28.75 121.982 30.0191C123.271 31.2882 123.994 33.0095 123.994 34.8044C123.994 36.5992 123.271 38.3205 121.982 39.5896C120.694 40.8587 118.947 41.5717 117.125 41.5717H138.599C140.421 41.5717 142.168 42.2848 143.456 43.554C144.745 44.8232 145.468 46.5446 145.468 48.3395C145.468 50.1344 144.745 51.8558 143.456 53.125C142.168 54.3942 140.421 55.1073 138.599 55.1073H128.668C123.91 55.1073 120.054 58.1371 120.054 61.8742C120.054 65.6113 125.91 68.642 125.91 68.642C127.732 68.642 129.479 69.355 130.767 70.6242C132.056 71.8934 132.78 73.6148 132.78 75.4098C132.78 77.2047 132.056 78.9261 130.767 80.1953C129.479 81.4645 127.732 82.1775 125.91 82.1775H44.8979ZM149.334 48.3395C149.342 47.0098 149.749 45.7119 150.504 44.6098C151.259 43.5077 152.329 42.6506 153.578 42.1467C154.827 41.6428 156.2 41.5147 157.523 41.7785C158.846 42.0424 160.06 42.6863 161.012 43.6291C161.964 44.572 162.611 45.7714 162.871 47.0761C163.132 48.3809 162.995 49.7324 162.476 50.9603C161.958 52.1881 161.082 53.2373 159.959 53.9753C158.837 54.7134 157.517 55.1072 156.167 55.1073C155.267 55.1049 154.377 54.928 153.547 54.5866C152.716 54.2452 151.962 53.7461 151.328 53.1176C150.693 52.4891 150.191 51.7437 149.849 50.9239C149.507 50.104 149.332 49.2259 149.334 48.3395Z" fill="#EEF1F4"/>
<path d="M110.612 90.0153L53.4541 96.9666C52.4239 97.0882 51.3869 96.8018 50.571 96.1703C49.7551 95.5388 49.2272 94.6139 49.1034 93.5991L40.3053 22.6101C40.2421 22.103 40.3852 21.5918 40.7034 21.1883C41.0216 20.7848 41.489 20.5218 42.0035 20.4568L42.0235 20.4543L46.7658 19.9261L50.5999 19.4986L53.3538 19.1941L104.117 13.535L113.196 79.1255L114.012 85.7053C114.139 86.7206 113.852 87.7442 113.215 88.5519C112.578 89.3597 111.642 89.8859 110.612 90.0153V90.0153Z" fill="white" stroke="#C70606" stroke-width="2.5" stroke-miterlimit="10" stroke-linecap="round"/>
<path d="M101.646 17.6624L109.864 77.1042L110.603 83.0678C110.724 83.9819 110.472 84.906 109.902 85.6373C109.332 86.3686 108.491 86.8473 107.564 86.9685L56.3769 93.1939C55.917 93.2458 55.4513 93.2079 55.0064 93.0823C54.5614 92.9568 54.1459 92.746 53.7837 92.4622C53.4215 92.1783 53.1196 91.8269 52.8953 91.428C52.6711 91.0291 52.5288 90.5906 52.4767 90.1375L44.5232 25.9647C44.4594 25.4574 44.6024 24.9458 44.9208 24.5422C45.2392 24.1385 45.707 23.8757 46.2218 23.8113L52.5538 23.0413" fill="#EEF1F4"/>
<path d="M119.733 80.7036H62.1466C60.2776 80.7036 58.757 79.1962 58.757 77.3433V3.86713C58.757 2.01425 60.2776 0.506836 62.1466 0.506836H106.612C107.517 0.506836 108.367 0.855756 109.007 1.48933L122.128 14.4781C122.77 15.113 123.123 15.9574 123.123 16.8559V77.3433C123.123 79.1962 121.602 80.7036 119.733 80.7036Z" fill="white"/>
<path d="M62.1466 1.01375C60.5613 1.01375 59.2715 2.29379 59.2715 3.86718V77.3433C59.2715 78.9167 60.5613 80.1968 62.1466 80.1968H119.733C121.319 80.1968 122.608 78.9167 122.608 77.3433V16.8559C122.608 16.0924 122.308 15.3749 121.764 14.8357L108.642 1.84692C108.1 1.30963 107.379 1.01375 106.612 1.01375H62.1466ZM62.1466 0H106.612C107.647 0 108.64 0.407107 109.372 1.13182L122.493 14.1206C123.226 14.8459 123.637 15.8299 123.637 16.8559V77.3433C123.637 79.4791 121.889 81.2105 119.733 81.2105H62.1466C59.9904 81.2105 58.2424 79.4791 58.2424 77.3433V3.86718C58.2424 1.73139 59.9904 0 62.1466 0Z" fill="#C70606"/>
<path d="M82.4785 62.6543H80.1992V61.7344H82.4785C82.9199 61.7344 83.2773 61.6641 83.5508 61.5234C83.8242 61.3828 84.0234 61.1875 84.1484 60.9375C84.2773 60.6875 84.3418 60.4023 84.3418 60.082C84.3418 59.7891 84.2773 59.5137 84.1484 59.2559C84.0234 58.998 83.8242 58.791 83.5508 58.6348C83.2773 58.4746 82.9199 58.3945 82.4785 58.3945H80.4629V66H79.332V57.4688H82.4785C83.123 57.4688 83.668 57.5801 84.1133 57.8027C84.5586 58.0254 84.8965 58.334 85.127 58.7285C85.3574 59.1191 85.4727 59.5664 85.4727 60.0703C85.4727 60.6172 85.3574 61.084 85.127 61.4707C84.8965 61.8574 84.5586 62.1523 84.1133 62.3555C83.668 62.5547 83.123 62.6543 82.4785 62.6543ZM93.4648 57.4688V66H92.3281L88.0332 59.4199V66H86.9023V57.4688H88.0332L92.3457 64.0664V57.4688H93.4648ZM101.773 61.752V64.875C101.668 65.0312 101.5 65.207 101.27 65.4023C101.039 65.5938 100.721 65.7617 100.314 65.9062C99.9121 66.0469 99.3926 66.1172 98.7559 66.1172C98.2363 66.1172 97.7578 66.0273 97.3203 65.8477C96.8867 65.6641 96.5098 65.3984 96.1895 65.0508C95.873 64.6992 95.627 64.2734 95.4512 63.7734C95.2793 63.2695 95.1934 62.6992 95.1934 62.0625V61.4004C95.1934 60.7637 95.2676 60.1953 95.416 59.6953C95.5684 59.1953 95.791 58.7715 96.084 58.4238C96.377 58.0723 96.7363 57.8066 97.1621 57.627C97.5879 57.4434 98.0762 57.3516 98.627 57.3516C99.2793 57.3516 99.8242 57.4648 100.262 57.6914C100.703 57.9141 101.047 58.2227 101.293 58.6172C101.543 59.0117 101.703 59.4609 101.773 59.9648H100.643C100.592 59.6562 100.49 59.375 100.338 59.1211C100.189 58.8672 99.9766 58.6641 99.6992 58.5117C99.4219 58.3555 99.0645 58.2773 98.627 58.2773C98.2324 58.2773 97.8906 58.3496 97.6016 58.4941C97.3125 58.6387 97.0742 58.8457 96.8867 59.1152C96.6992 59.3848 96.5586 59.7109 96.4648 60.0938C96.375 60.4766 96.3301 60.9082 96.3301 61.3887V62.0625C96.3301 62.5547 96.3867 62.9941 96.5 63.3809C96.6172 63.7676 96.7832 64.0977 96.998 64.3711C97.2129 64.6406 97.4688 64.8457 97.7656 64.9863C98.0664 65.127 98.3984 65.1973 98.7617 65.1973C99.1641 65.1973 99.4902 65.1641 99.7402 65.0977C99.9902 65.0273 100.186 64.9453 100.326 64.8516C100.467 64.7539 100.574 64.6621 100.648 64.5762V62.666H98.6738V61.752H101.773Z" fill="#C70606"/>
<path d="M107.044 2.32312V13.5351C107.042 14.3021 107.35 15.0384 107.899 15.5821C108.448 16.1258 109.194 16.4324 109.973 16.4345H117.716" stroke="#C70606" stroke-width="2.5" stroke-miterlimit="10" stroke-linecap="round" stroke-linejoin="round"/>
</g>
<defs>
<clipPath id="clip0_200_1739">
<rect width="163" height="98" fill="white"/>
</clipPath>
</defs>
</svg>
