<svg width="60" height="60" viewBox="0 0 60 60" fill="none" xmlns="http://www.w3.org/2000/svg">
<path d="M1.40665 11.3247C1.18206 9.12704 2.78158 7.16339 4.97928 6.93881L14.1656 6.00003L18.9437 52.7565L9.75745 53.6953C7.55976 53.9199 5.59611 52.3204 5.37152 50.1227L1.40665 11.3247Z" fill="#16171C"/>
<path fill-rule="evenodd" clip-rule="evenodd" d="M57.875 7.5C57.875 5.085 55.9175 3.125 53.5 3.125H18.5C16.0825 3.125 14.125 5.085 14.125 7.5V52.5C14.125 54.915 16.0825 56.875 18.5 56.875H53.5C55.9175 56.875 57.875 54.915 57.875 52.5V7.5ZM22.1325 45.1575L24.945 48.1575C25.3225 48.5625 25.8625 48.7775 26.415 48.7475C26.9675 48.7175 27.48 48.4425 27.8125 48L32.5 41.75C33.12 40.9225 32.9525 39.745 32.125 39.125C31.2975 38.505 30.12 38.6725 29.5 39.5L26.1525 43.9625L24.8675 42.5925C24.16 41.8375 22.9725 41.8 22.2175 42.5075C21.4625 43.215 21.425 44.4025 22.1325 45.1575ZM38.5 45.625H48.5C49.535 45.625 50.375 44.785 50.375 43.75C50.375 42.715 49.535 41.875 48.5 41.875H38.5C37.465 41.875 36.625 42.715 36.625 43.75C36.625 44.785 37.465 45.625 38.5 45.625ZM22.1325 31.4075L24.945 34.4075C25.3225 34.8125 25.8625 35.0275 26.415 34.9975C26.9675 34.9675 27.48 34.6925 27.8125 34.25L32.5 28C33.12 27.1725 32.9525 25.995 32.125 25.375C31.2975 24.755 30.12 24.9225 29.5 25.75L26.1525 30.2125L24.8675 28.8425C24.16 28.0875 22.9725 28.05 22.2175 28.7575C21.4625 29.465 21.425 30.6525 22.1325 31.4075ZM38.5 31.875H48.5C49.535 31.875 50.375 31.035 50.375 30C50.375 28.965 49.535 28.125 48.5 28.125H38.5C37.465 28.125 36.625 28.965 36.625 30C36.625 31.035 37.465 31.875 38.5 31.875ZM22.1325 17.6575L24.945 20.6575C25.3225 21.0625 25.8625 21.2775 26.415 21.2475C26.9675 21.2175 27.48 20.9425 27.8125 20.5L32.5 14.25C33.12 13.4225 32.9525 12.245 32.125 11.625C31.2975 11.005 30.12 11.1725 29.5 12L26.1525 16.4625L24.8675 15.0925C24.16 14.3375 22.9725 14.3 22.2175 15.0075C21.4625 15.715 21.425 16.9025 22.1325 17.6575ZM38.5 18.125H48.5C49.535 18.125 50.375 17.285 50.375 16.25C50.375 15.215 49.535 14.375 48.5 14.375H38.5C37.465 14.375 36.625 15.215 36.625 16.25C36.625 17.285 37.465 18.125 38.5 18.125Z" fill="#1D1E25"/>
</svg>
