<svg width="21" height="20" viewBox="0 0 21 20" fill="none" xmlns="http://www.w3.org/2000/svg">
  <path d="M7.5 5H3.1C2.53995 5 2.25992 5 2.04601 5.10899C1.85785 5.20487 1.70487 5.35785 1.60899 5.54601C1.5 5.75992 1.5 6.03995 1.5 6.6V17.4C1.5 17.9601 1.5 18.2401 1.60899 18.454C1.70487 18.6422 1.85785 18.7951 2.04601 18.891C2.25992 19 2.53995 19 3.1 19H7.5M7.5 19H13.5M7.5 19L7.5 2.6C7.5 2.03995 7.5 1.75992 7.60899 1.54601C7.70487 1.35785 7.85785 1.20487 8.04601 1.10899C8.25992 1 8.53995 1 9.1 1L11.9 1C12.4601 1 12.7401 1 12.954 1.10899C13.1422 1.20487 13.2951 1.35785 13.391 1.54601C13.5 1.75992 13.5 2.03995 13.5 2.6V19M13.5 9H17.9C18.4601 9 18.7401 9 18.954 9.10899C19.1422 9.20487 19.2951 9.35785 19.391 9.54601C19.5 9.75992 19.5 10.0399 19.5 10.6V17.4C19.5 17.9601 19.5 18.2401 19.391 18.454C19.2951 18.6422 19.1422 18.7951 18.954 18.891C18.7401 19 18.4601 19 17.9 19H13.5" stroke-width="2" stroke-linecap="round" stroke-linejoin="round" />
</svg>
  