<svg width="23" height="22" viewBox="0 0 23 22" fill="none" xmlns="http://www.w3.org/2000/svg">
  <path d="M16.7 13C16.977 13 17.1155 13 17.2278 13.0615C17.3204 13.1122 17.4065 13.2075 17.4478 13.3047C17.4978 13.4225 17.4852 13.5479 17.46 13.7987C17.3296 15.0987 16.8822 16.3514 16.1518 17.4445C15.2727 18.7601 14.0233 19.7855 12.5615 20.391C11.0997 20.9965 9.49113 21.155 7.93928 20.8463C6.38743 20.5376 4.96197 19.7757 3.84315 18.6568C2.72433 17.538 1.9624 16.1126 1.65372 14.5607C1.34504 13.0089 1.50347 11.4003 2.10897 9.93852C2.71447 8.47671 3.73985 7.22728 5.05544 6.34823C6.14856 5.61783 7.40125 5.17039 8.70131 5.03995C8.95207 5.01479 9.07745 5.00221 9.19528 5.0522C9.29249 5.09344 9.38776 5.17964 9.4385 5.27224C9.5 5.38449 9.5 5.52299 9.5 5.79999V12.2C9.5 12.48 9.5 12.62 9.5545 12.727C9.60244 12.8211 9.67893 12.8976 9.77301 12.9455C9.87996 13 10.02 13 10.3 13H16.7Z" stroke-width="2" stroke-linecap="round" stroke-linejoin="round" />
  <path d="M13.5 1.79999C13.5 1.52298 13.5 1.38448 13.5615 1.27223C13.6122 1.17963 13.7075 1.09344 13.8047 1.0522C13.9225 1.0022 14.0479 1.01478 14.2987 1.03993C16.1271 1.22333 17.846 2.03229 19.1569 3.34313C20.4677 4.65398 21.2767 6.37289 21.4601 8.20129C21.4852 8.45206 21.4978 8.57744 21.4478 8.69527C21.4066 8.79248 21.3204 8.88774 21.2278 8.93848C21.1155 8.99998 20.977 8.99999 20.7 8.99999L14.3 8.99999C14.02 8.99999 13.88 8.99999 13.773 8.94549C13.6789 8.89755 13.6024 8.82106 13.5545 8.72698C13.5 8.62003 13.5 8.48001 13.5 8.19999V1.79999Z" stroke-width="2" stroke-linecap="round" stroke-linejoin="round" />
</svg>
  