<svg width="24" height="24" viewBox="0 0 24 24" fill="none" xmlns="http://www.w3.org/2000/svg">
  <path d="M7 4H3C2.44772 4 2 4.44772 2 5V9C2 9.55228 2.44772 10 3 10H7C7.55228 10 8 9.55228 8 9V5C8 4.44772 7.55228 4 7 4Z" stroke="#FE737D" stroke-width="2" />
  <path d="M7 14H3C2.44772 14 2 14.4477 2 15V19C2 19.5523 2.44772 20 3 20H7C7.55228 20 8 19.5523 8 19V15C8 14.4477 7.55228 14 7 14Z" stroke="#5AE290" stroke-width="2" />
  <path d="M12 4H22" stroke="#F5F5F5" stroke-width="2" stroke-linecap="round" />
  <path d="M12 9H22" stroke="#F5F5F5" stroke-width="2" stroke-linecap="round" />
  <path d="M12 14H22" stroke="#F5F5F5" stroke-width="2" stroke-linecap="round" />
  <path d="M12 19H22" stroke="#F5F5F5" stroke-width="2" stroke-linecap="round" />
</svg>
  