<svg width="6" height="14" viewBox="0 0 6 14" fill="none" xmlns="http://www.w3.org/2000/svg">
  <path d="M3.5655 0.684608C3.5945 0.712859 3.7185 0.819532 3.8205 0.918899C4.462 1.50146 5.512 3.02119 5.8325 3.81661C5.884 3.93741 5.993 4.24282 6 4.40599C6 4.56235 5.964 4.7114 5.891 4.85363C5.789 5.03093 5.6285 5.17316 5.439 5.2511C5.3075 5.30127 4.914 5.3792 4.907 5.3792C4.4765 5.45714 3.777 5.5 3.004 5.5C2.2675 5.5 1.5965 5.45714 1.1595 5.39333C1.1525 5.38602 0.6635 5.30809 0.496 5.22284C0.19 5.06649 6.45983e-08 4.76108 9.31715e-08 4.43424L9.56413e-08 4.40599C0.00750029 4.19313 0.1975 3.74549 0.2045 3.74549C0.525501 2.99294 1.524 1.50828 2.1875 0.911593C2.1875 0.911593 2.358 0.743546 2.4645 0.670482C2.6175 0.556503 2.807 0.5 2.9965 0.5C3.208 0.5 3.405 0.563809 3.5655 0.684608Z" fill="#BBBBBB" />
  <path d="M2.4345 13.3154C2.4055 13.2871 2.2815 13.1805 2.1795 13.0811C1.538 12.4985 0.488 10.9788 0.1675 10.1834C0.116 10.0626 0.007 9.75718 0 9.59401C0 9.43765 0.036 9.2886 0.109 9.14637C0.211 8.96907 0.3715 8.82684 0.561 8.7489C0.6925 8.69873 1.086 8.6208 1.093 8.6208C1.5235 8.54286 2.223 8.5 2.996 8.5C3.7325 8.5 4.4035 8.54286 4.8405 8.60667C4.8475 8.61398 5.3365 8.69191 5.504 8.77716C5.81 8.93351 6 9.23892 6 9.56576V9.59401C5.9925 9.80687 5.8025 10.2545 5.7955 10.2545C5.4745 11.0071 4.476 12.4917 3.8125 13.0884C3.8125 13.0884 3.642 13.2565 3.5355 13.3295C3.3825 13.4435 3.193 13.5 3.0035 13.5C2.792 13.5 2.595 13.4362 2.4345 13.3154Z" fill="#646464" />
</svg>
  